# xmcd
#
# Track frame offsets:
#	150
#	12057
#	25259
#	39155
#	50236
#	64904
#	79150
#	92683
#	105584
#	117279
#	129605
#	142533
#	156086
#	167748
#	181119
#	191955
#	202983
#	215161
#	232732
#	244357
#	257219
#	267666
#	280572
#	297971
#	311533
#	322963
#
# Disc length: 4474 seconds
#
# Revision: 1
# Processed by: cddbd v1.4b42PL1 Copyright (c) Steve Scherf et al.
# Submitted via: audiograbber 1.80
#
DISCID=7111781a
DTITLE=Sam and Dave - The Best of Sam And Dave
DYEAR=1900
DGENRE=
TTITLE0=HOLD ON I'M COMING
TTITLE1=SOUL MAN
TTITLE2=SUMMERTIME
TTITLE3=YOU DON'T KNOW WHAT YOU MEAN TO ME
TTITLE4=WHEN SOMETHING IS WRONG WITH MY BABY
TTITLE5=YOU SEND ME
TTITLE6=WONDERFUL WORLD
TTITLE7=I THANK YOU
TTITLE8=SOUL SISTEN, BROWN SUGAR
TTITLE9=(SITTIN' ON THE) DOCK OF THE BAY
TTITLE10=YOU GOT ME HUMMIN'
TTITLE11=DON'T PULL YOUR LOVE
TTITLE12=SOOTHE ME
TTITLE13=GIMME SOME LOVEIN'
TTITLE14=BRING IT ON HOME TO ME
TTITLE15=ANOTHER SATURDAY NIGHT
TTITLE16=YOU DON'T KNOW LIKE I KNOW 
TTITLE17=CUPID
TTITLE18=FUNKY STREET
TTITLE19=FUNKY BROADWAY
TTITLE20=SWEET SOUL MUSIC
TTITLE21=634-5789
TTITLE22=MUSTANG SALLY
TTITLE23=GOOD LOVIN'
TTITLE24=LAND OF A THOUSAND DANCES
TTITLE25=(I CAN'T GET NO) SATISFACTION
EXTD=
EXTT0=
EXTT1=
EXTT2=
EXTT3=
EXTT4=
EXTT5=
EXTT6=
EXTT7=
EXTT8=
EXTT9=
EXTT10=
EXTT11=
EXTT12=
EXTT13=
EXTT14=
EXTT15=
EXTT16=
EXTT17=
EXTT18=
EXTT19=
EXTT20=
EXTT21=
EXTT22=
EXTT23=
EXTT24=
EXTT25=
PLAYORDER=
